# xmcd
#
# Track frame offsets:
#	150
#	20875
#	44365
#	61524
#	84271
#	108492
#	141487
#	172025
#	203213
#	220003
#	248127
#	278406
#	294418
#
# Disc length: 4321 seconds
#
# Revision: 3
# Processed by: cddbd v1.5.2PL0 Copyright (c) Steve Scherf et al.
# Submitted via: audiograbber 1.83.01
#
DISCID=ba10df0d
DTITLE=Various Artist - Chivas Regal Collection No6
DYEAR=2003
DGENRE=Acoustic
TTITLE0=Anteus - Heaven
TTITLE1=Mighty Fine - I was made for loving you
TTITLE2=Blueboy - Remember me
TTITLE3=IDF - Kamasutra (bedroom mix)
TTITLE4=Jesus Loves You - Generation of love
TTITLE5=A Tony Hamphries Project/The Family - Feel the light
TTITLE6=Morpheus - A summer place
TTITLE7=Ferry Ultra feat. Roy Ayers - Dangerous vibes
TTITLE8=Rosie Gaines - Closer than close
TTITLE9=Walterino Play Live - Red stage
TTITLE10=Afromedusa - Pasilda
TTITLE11=Gazebo - I like Chopin 98
TTITLE12=Paul Scwartz - Willow
EXTD=
EXTT0=
EXTT1=
EXTT2=
EXTT3=
EXTT4=
EXTT5=
EXTT6=
EXTT7=
EXTT8=
EXTT9=
EXTT10=
EXTT11=
EXTT12=
PLAYORDER=
